<svg xmlns="http://www.w3.org/2000/svg" width="1200" height="610" viewBox="0 0 1200 610">
  <!-- Section motif: a projector beam over a film rail. Objects only, no beings.
       Used as a CSS mask: strokes are white, the theme's token supplies the
       colour. Real file, never a data: URI (CSP img-src has no data:). -->
  <g fill="none" stroke="#ffffff" stroke-width="5" stroke-linecap="round" stroke-linejoin="round">
    <rect x="555" y="34" width="90" height="52" rx="8"/>
    <circle cx="600" cy="60" r="12"/>
    <line x1="576" y1="88" x2="300" y2="470" stroke-dasharray="2 10"/>
    <line x1="624" y1="88" x2="900" y2="470" stroke-dasharray="2 10"/>
    <line x1="40" y1="500" x2="1160" y2="500" stroke-width="7"/>
    <line x1="40" y1="570" x2="1160" y2="570" stroke-width="7"/>
    <rect x="60" y="512" width="18" height="12" rx="2"/>
    <rect x="60" y="546" width="18" height="12" rx="2"/>
    <rect x="116" y="512" width="18" height="12" rx="2"/>
    <rect x="116" y="546" width="18" height="12" rx="2"/>
    <rect x="172" y="512" width="18" height="12" rx="2"/>
    <rect x="172" y="546" width="18" height="12" rx="2"/>
    <rect x="228" y="512" width="18" height="12" rx="2"/>
    <rect x="228" y="546" width="18" height="12" rx="2"/>
    <rect x="284" y="512" width="18" height="12" rx="2"/>
    <rect x="284" y="546" width="18" height="12" rx="2"/>
    <rect x="340" y="512" width="18" height="12" rx="2"/>
    <rect x="340" y="546" width="18" height="12" rx="2"/>
    <rect x="396" y="512" width="18" height="12" rx="2"/>
    <rect x="396" y="546" width="18" height="12" rx="2"/>
    <rect x="452" y="512" width="18" height="12" rx="2"/>
    <rect x="452" y="546" width="18" height="12" rx="2"/>
    <rect x="508" y="512" width="18" height="12" rx="2"/>
    <rect x="508" y="546" width="18" height="12" rx="2"/>
    <rect x="564" y="512" width="18" height="12" rx="2"/>
    <rect x="564" y="546" width="18" height="12" rx="2"/>
    <rect x="620" y="512" width="18" height="12" rx="2"/>
    <rect x="620" y="546" width="18" height="12" rx="2"/>
    <rect x="676" y="512" width="18" height="12" rx="2"/>
    <rect x="676" y="546" width="18" height="12" rx="2"/>
    <rect x="732" y="512" width="18" height="12" rx="2"/>
    <rect x="732" y="546" width="18" height="12" rx="2"/>
    <rect x="788" y="512" width="18" height="12" rx="2"/>
    <rect x="788" y="546" width="18" height="12" rx="2"/>
    <rect x="844" y="512" width="18" height="12" rx="2"/>
    <rect x="844" y="546" width="18" height="12" rx="2"/>
    <rect x="900" y="512" width="18" height="12" rx="2"/>
    <rect x="900" y="546" width="18" height="12" rx="2"/>
    <rect x="956" y="512" width="18" height="12" rx="2"/>
    <rect x="956" y="546" width="18" height="12" rx="2"/>
    <rect x="1012" y="512" width="18" height="12" rx="2"/>
    <rect x="1012" y="546" width="18" height="12" rx="2"/>
    <rect x="1068" y="512" width="18" height="12" rx="2"/>
    <rect x="1068" y="546" width="18" height="12" rx="2"/>
    <rect x="1124" y="512" width="18" height="12" rx="2"/>
    <rect x="1124" y="546" width="18" height="12" rx="2"/>
  </g>
</svg>
